STARTFONT 2.1
FONT -sgikork-Fixed-Medium-R-Normal--18-120-100-100-C-90-ISO8859-1
SIZE 12 100 100
FONTBOUNDINGBOX 9 18 0 -2

STARTPROPERTIES 23
_DEC_DEVICE_FONTNAMES "FM=Fixed"
FONTNAME_REGISTRY ""
FOUNDRY "sgikork"
FAMILY_NAME "Fixed"
WEIGHT_NAME "Medium"
SLANT "R"
SETWIDTH_NAME "Normal"
ADD_STYLE_NAME ""
PIXEL_SIZE 18
POINT_SIZE 120
RESOLUTION_X 100
RESOLUTION_Y 100
SPACING "C"
AVERAGE_WIDTH 90
CHARSET_REGISTRY "ISO8859"
CHARSET_ENCODING "1"
COPYRIGHT "Copyright (c) 1987, 1988 Sony Corp."
WEIGHT 10
X_HEIGHT 16
QUAD_WIDTH 9
DEFAULT_CHAR 32
FONT_DESCENT 2
FONT_ASCENT 16
ENDPROPERTIES

CHARS 221

STARTCHAR 0x1
ENCODING 1
SWIDTH 750 0
DWIDTH 9 0
BBX 9 18 0 -2
BITMAP
0000
1000
1000
3800
3800
7C00
7C00
FE00
FE00
7C00
7C00
3800
3800
1000
1000
0000
0000
0000
ENDCHAR

STARTCHAR 0x2
ENCODING 2
SWIDTH 750 0
DWIDTH 9 0
BBX 9 18 0 -2
BITMAP
0000
9200
9200
4400
4400
9200
9200
4400
4400
9200
9200
4400
4400
9200
9200
0000
0000
0000
ENDCHAR

STARTCHAR 0x3
ENCODING 3
SWIDTH 750 0
DWIDTH 9 0
BBX 9 18 0 -2
BITMAP
0000
0000
8800
8800
8800
F800
8800
8800
8800
0000
3E00
0800
0800
0800
0800
0800
0800
0000
ENDCHAR

STARTCHAR 0x4
ENCODING 4
SWIDTH 750 0
DWIDTH 9 0
BBX 9 18 0 -2
BITMAP
0000
0000
F800
8000
8000
F000
8000
8000
8000
3E00
2000
2000
3C00
2000
2000
2000
0000
0000
ENDCHAR

STARTCHAR 0x5
ENCODING 5
SWIDTH 750 0
DWIDTH 9 0
BBX 9 18 0 -2
BITMAP
0000
0000
7000
8800
8000
8000
8000
8800
7000
0000
3C00
2200
2200
3C00
2800
2400
2200
0000
ENDCHAR

STARTCHAR 0x6
ENCODING 6
SWIDTH 750 0
DWIDTH 9 0
BBX 9 18 0 -2
BITMAP
0000
0000
8000
8000
8000
8000
8000
8000
F800
0000
3E00
2000
2000
3C00
2000
2000
2000
0000
ENDCHAR

STARTCHAR 0x7
ENCODING 7
SWIDTH 750 0
DWIDTH 9 0
BBX 9 18 0 -2
BITMAP
0000
0000
0000
3800
4400
4400
4400
3800
0000
0000
0000
0000
0000
0000
0000
0000
0000
0000
ENDCHAR

STARTCHAR 0x8
ENCODING 8
SWIDTH 750 0
DWIDTH 9 0
BBX 9 18 0 -2
BITMAP
0000
0000
0000
1000
1000
1000
1000
FE00
1000
1000
1000
1000
0000
FE00
0000
0000
0000
0000
ENDCHAR

STARTCHAR 0x9
ENCODING 9
SWIDTH 750 0
DWIDTH 9 0
BBX 9 18 0 -2
BITMAP
0000
0000
8400
C400
A400
A400
9400
9400
8C00
8400
2000
2000
2000
2000
2000
2000
3E00
0000
ENDCHAR

STARTCHAR 0xa
ENCODING 10
SWIDTH 750 0
DWIDTH 9 0
BBX 9 18 0 -2
BITMAP
0000
0000
0000
8800
8800
8800
5000
5000
2000
0000
3E00
0800
0800
0800
0800
0800
0000
0000
ENDCHAR

STARTCHAR 0xb
ENCODING 11
SWIDTH 750 0
DWIDTH 9 0
BBX 9 18 0 -2
BITMAP
0000
0000
0000
0800
0800
3C00
4A00
4800
4800
4800
4A00
3C00
0800
0F00
0000
0000
0000
0000
ENDCHAR

STARTCHAR 0xc
ENCODING 12
SWIDTH 750 0
DWIDTH 9 0
BBX 9 18 0 -2
BITMAP
0000
0000
0000
0000
0000
0000
3D00
4200
8500
8900
9100
A100
4200
BC00
0000
0000
0000
0000
ENDCHAR

STARTCHAR 0xd
ENCODING 13
SWIDTH 750 0
DWIDTH 9 0
BBX 9 18 0 -2
BITMAP
0000
0000
0000
0000
0000
1800
2400
2400
1800
0000
0000
0000
0000
0000
0000
0000
0000
0000
ENDCHAR

STARTCHAR 0xe
ENCODING 14
SWIDTH 750 0
DWIDTH 9 0
BBX 9 18 0 -2
BITMAP
0000
0000
3C00
4200
8100
8100
8100
4200
4200
2400
2400
E700
0000
0000
0000
0000
0000
0000
ENDCHAR

STARTCHAR 0xf
ENCODING 15
SWIDTH 750 0
DWIDTH 9 0
BBX 9 18 0 -2
BITMAP
0000
0000
0000
0000
0000
0300
0C00
3000
4000
3000
0C00
0300
0000
7F00
0000
0000
0000
0000
ENDCHAR

STARTCHAR 0x10
ENCODING 16
SWIDTH 750 0
DWIDTH 9 0
BBX 9 18 0 -2
BITMAP
0000
0000
0000
0000
0000
0000
6000
1800
0600
0100
0600
1800
6000
0000
7F00
0000
0000
0000
ENDCHAR

STARTCHAR 0x11
ENCODING 17
SWIDTH 750 0
DWIDTH 9 0
BBX 9 18 0 -2
BITMAP
0000
0000
0800
0800
0800
7F00
0800
0800
0800
0000
7F00
0000
0000
0000
0000
0000
0000
0000
ENDCHAR

STARTCHAR 0x12
ENCODING 18
SWIDTH 750 0
DWIDTH 9 0
BBX 9 18 0 -2
BITMAP
0000
0000
0000
0000
0000
0000
4200
4200
4200
4200
4200
7C80
4300
4200
4000
C000
0000
0000
ENDCHAR

STARTCHAR 0x13
ENCODING 19
SWIDTH 750 0
DWIDTH 9 0
BBX 9 18 0 -2
BITMAP
0000
0000
0000
0000
0000
0000
0000
1800
3C00
3C00
1800
0000
0000
0000
0000
0000
0000
0000
ENDCHAR

STARTCHAR 0x14
ENCODING 20
SWIDTH 750 0
DWIDTH 9 0
BBX 9 18 0 -2
BITMAP
0000
0000
0000
0000
0000
0000
4100
2200
1400
0800
0000
0000
0000
0000
0000
0000
0000
0000
ENDCHAR

STARTCHAR 0x15
ENCODING 21
SWIDTH 750 0
DWIDTH 9 0
BBX 9 18 0 -2
BITMAP
0000
0000
0000
0000
0000
0000
4100
4100
4100
4100
4100
4100
4100
7F00
0000
0000
0000
0000
ENDCHAR

STARTCHAR 0x16
ENCODING 22
SWIDTH 750 0
DWIDTH 9 0
BBX 9 18 0 -2
BITMAP
0000
0000
0000
0000
7F00
0800
0800
0800
0800
0800
0800
0800
3E00
1C00
0800
0000
0000
0000
ENDCHAR

STARTCHAR 0x17
ENCODING 23
SWIDTH 750 0
DWIDTH 9 0
BBX 9 18 0 -2
BITMAP
0000
1000
1000
1000
1000
1000
1000
1000
1000
FF00
0000
0000
0000
0000
0000
0000
0000
0000
ENDCHAR

STARTCHAR 0x18
ENCODING 24
SWIDTH 750 0
DWIDTH 9 0
BBX 9 18 0 -2
BITMAP
0000
0000
0000
0000
0000
0000
0000
0000
0000
FF00
1000
1000
1000
1000
1000
1000
1000
0000
ENDCHAR

STARTCHAR 0x19
ENCODING 25
SWIDTH 750 0
DWIDTH 9 0
BBX 9 18 0 -2
BITMAP
0000
1000
1000
1000
1000
1000
1000
1000
1000
1000
1000
1000
1000
1000
1000
1000
1000
0000
ENDCHAR

STARTCHAR 0x1a
ENCODING 26
SWIDTH 750 0
DWIDTH 9 0
BBX 9 18 0 -2
BITMAP
0000
0000
0000
0000
0000
0200
0C00
3000
C000
3000
0C00
0200
FE00
0000
FE00
0000
0000
0000
ENDCHAR

STARTCHAR 0x1b
ENCODING 27
SWIDTH 750 0
DWIDTH 9 0
BBX 9 18 0 -2
BITMAP
0000
0000
0000
0000
0000
8000
6000
1800
0600
1800
6000
8000
FE00
0000
FE00
0000
0000
0000
ENDCHAR

STARTCHAR 0x1c
ENCODING 28
SWIDTH 750 0
DWIDTH 9 0
BBX 9 18 0 -2
BITMAP
0000
0000
0000
0000
0000
0000
0000
0000
FE00
2400
2400
2400
2400
4400
8400
0000
0000
0000
ENDCHAR

STARTCHAR 0x1d
ENCODING 29
SWIDTH 750 0
DWIDTH 9 0
BBX 9 18 0 -2
BITMAP
0000
0000
0000
0000
0000
0200
0400
0800
FE00
1000
FE00
2000
4000
8000
0000
0000
0000
0000
ENDCHAR

STARTCHAR 0x1e
ENCODING 30
SWIDTH 750 0
DWIDTH 9 0
BBX 9 18 0 -2
BITMAP
0000
0000
0000
0000
0000
0C00
1200
1000
1000
1000
7C00
1000
1000
3C00
5200
2000
0000
0000
ENDCHAR

STARTCHAR 0x1f
ENCODING 31
SWIDTH 750 0
DWIDTH 9 0
BBX 9 18 0 -2
BITMAP
0000
0000
0000
0000
0000
0000
0000
0000
0000
1000
0000
0000
0000
0000
0000
0000
0000
0000
ENDCHAR

STARTCHAR 0x20
ENCODING 32
SWIDTH 750 0
DWIDTH 9 0
BBX 9 18 0 -2
BITMAP
0000
0000
0000
0000
0000
0000
0000
0000
0000
0000
0000
0000
0000
0000
0000
0000
0000
0000
ENDCHAR

STARTCHAR 0x21
ENCODING 33
SWIDTH 750 0
DWIDTH 9 0
BBX 9 18 0 -2
BITMAP
0000
0000
3800
3800
3800
3800
3800
3800
1000
1000
1000
1000
0000
0000
1000
3800
1000
0000
ENDCHAR

STARTCHAR 0x22
ENCODING 34
SWIDTH 750 0
DWIDTH 9 0
BBX 9 18 0 -2
BITMAP
0000
6C00
6C00
2400
2400
4800
0000
0000
0000
0000
0000
0000
0000
0000
0000
0000
0000
0000
ENDCHAR

STARTCHAR 0x23
ENCODING 35
SWIDTH 750 0
DWIDTH 9 0
BBX 9 18 0 -2
BITMAP
0000
0000
1200
1200
1200
7F00
2400
2400
2400
2400
2400
FE00
4800
4800
4800
4800
0000
0000
ENDCHAR

STARTCHAR 0x24
ENCODING 36
SWIDTH 750 0
DWIDTH 9 0
BBX 9 18 0 -2
BITMAP
0000
1000
3800
5400
9200
9600
9000
5000
3800
1400
1200
D200
9200
9400
7800
1000
1000
0000
ENDCHAR

STARTCHAR 0x25
ENCODING 37
SWIDTH 750 0
DWIDTH 9 0
BBX 9 18 0 -2
BITMAP
0000
0200
6200
9400
9400
9400
9800
6800
1000
1000
2C00
3200
5200
5200
5200
8C00
8000
0000
ENDCHAR

STARTCHAR 0x26
ENCODING 38
SWIDTH 750 0
DWIDTH 9 0
BBX 9 18 0 -2
BITMAP
0000
0000
3000
4800
4800
4800
5000
2000
2E00
5400
5400
9400
8800
8C00
7200
0000
0000
0000
ENDCHAR

STARTCHAR 0x27
ENCODING 39
SWIDTH 750 0
DWIDTH 9 0
BBX 9 18 0 -2
BITMAP
0000
E000
E000
2000
2000
C000
0000
0000
0000
0000
0000
0000
0000
0000
0000
0000
0000
0000
ENDCHAR

STARTCHAR 0x28
ENCODING 40
SWIDTH 750 0
DWIDTH 9 0
BBX 9 18 0 -2
BITMAP
0000
0200
0400
0800
0800
1000
1000
1000
1000
1000
1000
1000
1000
0800
0800
0400
0200
0000
ENDCHAR

STARTCHAR 0x29
ENCODING 41
SWIDTH 750 0
DWIDTH 9 0
BBX 9 18 0 -2
BITMAP
0000
8000
4000
2000
2000
1000
1000
1000
1000
1000
1000
1000
1000
2000
2000
4000
8000
0000
ENDCHAR

STARTCHAR 0x2a
ENCODING 42
SWIDTH 750 0
DWIDTH 9 0
BBX 9 18 0 -2
BITMAP
0000
0000
0000
0000
1000
3800
9200
D600
3800
D600
9200
3800
1000
0000
0000
0000
0000
0000
ENDCHAR

STARTCHAR 0x2b
ENCODING 43
SWIDTH 750 0
DWIDTH 9 0
BBX 9 18 0 -2
BITMAP
0000
0000
0000
0000
1000
1000
1000
1000
FE00
1000
1000
1000
1000
0000
0000
0000
0000
0000
ENDCHAR

STARTCHAR 0x2c
ENCODING 44
SWIDTH 750 0
DWIDTH 9 0
BBX 9 18 0 -2
BITMAP
0000
0000
0000
0000
0000
0000
0000
0000
0000
0000
0000
0000
E000
E000
2000
2000
C000
0000
ENDCHAR

STARTCHAR 0x2d
ENCODING 45
SWIDTH 750 0
DWIDTH 9 0
BBX 9 18 0 -2
BITMAP
0000
0000
0000
0000
0000
0000
0000
0000
FE00
0000
0000
0000
0000
0000
0000
0000
0000
0000
ENDCHAR

STARTCHAR 0x2e
ENCODING 46
SWIDTH 750 0
DWIDTH 9 0
BBX 9 18 0 -2
BITMAP
0000
0000
0000
0000
0000
0000
0000
0000
0000
0000
0000
0000
4000
E000
E000
4000
0000
0000
ENDCHAR

STARTCHAR 0x2f
ENCODING 47
SWIDTH 750 0
DWIDTH 9 0
BBX 9 18 0 -2
BITMAP
0000
0200
0200
0400
0400
0800
0800
0800
1000
1000
1000
2000
2000
4000
4000
8000
8000
0000
ENDCHAR

STARTCHAR 0x30
ENCODING 48
SWIDTH 750 0
DWIDTH 9 0
BBX 9 18 0 -2
BITMAP
0000
0000
1800
2400
2400
4200
4200
4200
4200
4200
4200
4200
4200
2400
2400
1800
0000
0000
ENDCHAR

STARTCHAR 0x31
ENCODING 49
SWIDTH 750 0
DWIDTH 9 0
BBX 9 18 0 -2
BITMAP
0000
0000
1000
7000
1000
1000
1000
1000
1000
1000
1000
1000
1000
1000
7C00
0000
0000
0000
ENDCHAR

STARTCHAR 0x32
ENCODING 50
SWIDTH 750 0
DWIDTH 9 0
BBX 9 18 0 -2
BITMAP
0000
0000
1800
2400
4200
6200
0200
0400
0800
0800
1000
2000
2200
4200
7E00
0000
0000
0000
ENDCHAR

STARTCHAR 0x33
ENCODING 51
SWIDTH 750 0
DWIDTH 9 0
BBX 9 18 0 -2
BITMAP
0000
0000
3800
4400
8200
8200
0200
0400
3800
0400
0200
8200
8200
4400
3800
0000
0000
0000
ENDCHAR

STARTCHAR 0x34
ENCODING 52
SWIDTH 750 0
DWIDTH 9 0
BBX 9 18 0 -2
BITMAP
0000
0000
0800
1800
2800
2800
4800
4800
8800
8800
FE00
0800
0800
0800
3C00
0000
0000
0000
ENDCHAR

STARTCHAR 0x35
ENCODING 53
SWIDTH 750 0
DWIDTH 9 0
BBX 9 18 0 -2
BITMAP
0000
0000
FC00
8000
8000
8000
B800
C400
8200
0200
0200
C200
8200
4400
3800
0000
0000
0000
ENDCHAR

STARTCHAR 0x36
ENCODING 54
SWIDTH 750 0
DWIDTH 9 0
BBX 9 18 0 -2
BITMAP
0000
0000
3C00
4200
4600
8000
8000
B800
C400
8200
8200
8200
8200
4400
3800
0000
0000
0000
ENDCHAR

STARTCHAR 0x37
ENCODING 55
SWIDTH 750 0
DWIDTH 9 0
BBX 9 18 0 -2
BITMAP
0000
0000
FE00
8200
8200
0400
0400
0400
0800
0800
0800
0800
1000
1000
1000
1000
0000
0000
ENDCHAR

STARTCHAR 0x38
ENCODING 56
SWIDTH 750 0
DWIDTH 9 0
BBX 9 18 0 -2
BITMAP
0000
0000
3800
4400
8200
8200
8200
4400
3800
4400
8200
8200
8200
4400
3800
0000
0000
0000
ENDCHAR

STARTCHAR 0x39
ENCODING 57
SWIDTH 750 0
DWIDTH 9 0
BBX 9 18 0 -2
BITMAP
0000
0000
3800
4400
8200
8200
8200
8200
4600
3A00
0200
0200
8200
4400
3800
0000
0000
0000
ENDCHAR

STARTCHAR 0x3a
ENCODING 58
SWIDTH 750 0
DWIDTH 9 0
BBX 9 18 0 -2
BITMAP
0000
0000
0000
0000
0000
0000
3800
3800
0000
0000
0000
0000
0000
3800
3800
0000
0000
0000
ENDCHAR

STARTCHAR 0x3b
ENCODING 59
SWIDTH 750 0
DWIDTH 9 0
BBX 9 18 0 -2
BITMAP
0000
0000
0000
0000
0000
0000
3800
3800
0000
0000
0000
0000
3800
3800
1800
1000
3000
0000
ENDCHAR

STARTCHAR 0x3c
ENCODING 60
SWIDTH 750 0
DWIDTH 9 0
BBX 9 18 0 -2
BITMAP
0000
0200
0400
0400
0800
0800
1000
1000
2000
2000
1000
1000
0800
0800
0400
0400
0200
0000
ENDCHAR

STARTCHAR 0x3d
ENCODING 61
SWIDTH 750 0
DWIDTH 9 0
BBX 9 18 0 -2
BITMAP
0000
0000
0000
0000
0000
0000
FE00
0000
0000
0000
FE00
0000
0000
0000
0000
0000
0000
0000
ENDCHAR

STARTCHAR 0x3e
ENCODING 62
SWIDTH 750 0
DWIDTH 9 0
BBX 9 18 0 -2
BITMAP
0000
8000
4000
4000
2000
2000
1000
1000
0800
0800
1000
1000
2000
2000
4000
4000
8000
0000
ENDCHAR

STARTCHAR 0x3f
ENCODING 63
SWIDTH 750 0
DWIDTH 9 0
BBX 9 18 0 -2
BITMAP
0000
0000
3800
4400
8200
C200
0200
0400
0400
0800
1000
1000
0000
0000
1000
3800
1000
0000
ENDCHAR

STARTCHAR 0x40
ENCODING 64
SWIDTH 750 0
DWIDTH 9 0
BBX 9 18 0 -2
BITMAP
0000
0000
3C00
4200
8200
9A00
A600
A200
A200
A200
A600
9A00
8000
4200
3C00
0000
0000
0000
ENDCHAR

STARTCHAR 0x41
ENCODING 65
SWIDTH 750 0
DWIDTH 9 0
BBX 9 18 0 -2
BITMAP
0000
0000
1000
2800
2800
2800
4400
4400
4400
4400
7C00
8200
8200
8200
C600
0000
0000
0000
ENDCHAR

STARTCHAR 0x42
ENCODING 66
SWIDTH 750 0
DWIDTH 9 0
BBX 9 18 0 -2
BITMAP
0000
0000
F800
4400
4200
4200
4200
4400
7800
4400
4200
4200
4200
4200
FC00
0000
0000
0000
ENDCHAR

STARTCHAR 0x43
ENCODING 67
SWIDTH 750 0
DWIDTH 9 0
BBX 9 18 0 -2
BITMAP
0000
0000
3A00
4600
4200
8000
8000
8000
8000
8000
8000
8200
4200
4200
3C00
0000
0000
0000
ENDCHAR

STARTCHAR 0x44
ENCODING 68
SWIDTH 750 0
DWIDTH 9 0
BBX 9 18 0 -2
BITMAP
0000
0000
F800
4400
4400
4200
4200
4200
4200
4200
4200
4200
4400
4400
F800
0000
0000
0000
ENDCHAR

STARTCHAR 0x45
ENCODING 69
SWIDTH 750 0
DWIDTH 9 0
BBX 9 18 0 -2
BITMAP
0000
0000
FE00
4200
4200
4000
4800
4800
7800
4800
4800
4200
4200
4200
FE00
0000
0000
0000
ENDCHAR

STARTCHAR 0x46
ENCODING 70
SWIDTH 750 0
DWIDTH 9 0
BBX 9 18 0 -2
BITMAP
0000
0000
FE00
4200
4200
4000
4800
4800
7800
4800
4800
4000
4000
4000
F000
0000
0000
0000
ENDCHAR

STARTCHAR 0x47
ENCODING 71
SWIDTH 750 0
DWIDTH 9 0
BBX 9 18 0 -2
BITMAP
0000
0000
1A00
2600
4200
4000
8000
8000
8F00
8200
8200
8200
4200
6600
1A00
0000
0000
0000
ENDCHAR

STARTCHAR 0x48
ENCODING 72
SWIDTH 750 0
DWIDTH 9 0
BBX 9 18 0 -2
BITMAP
0000
0000
E700
4200
4200
4200
4200
7E00
4200
4200
4200
4200
4200
4200
E700
0000
0000
0000
ENDCHAR

STARTCHAR 0x49
ENCODING 73
SWIDTH 750 0
DWIDTH 9 0
BBX 9 18 0 -2
BITMAP
0000
0000
FE00
1000
1000
1000
1000
1000
1000
1000
1000
1000
1000
1000
FE00
0000
0000
0000
ENDCHAR

STARTCHAR 0x4a
ENCODING 74
SWIDTH 750 0
DWIDTH 9 0
BBX 9 18 0 -2
BITMAP
0000
0000
1F00
0200
0200
0200
0200
0200
0200
0200
8200
8200
8200
4400
3800
0000
0000
0000
ENDCHAR

STARTCHAR 0x4b
ENCODING 75
SWIDTH 750 0
DWIDTH 9 0
BBX 9 18 0 -2
BITMAP
0000
0000
E600
4400
4400
4800
4800
7000
5000
4800
4800
4400
4400
4200
E300
0000
0000
0000
ENDCHAR

STARTCHAR 0x4c
ENCODING 76
SWIDTH 750 0
DWIDTH 9 0
BBX 9 18 0 -2
BITMAP
0000
0000
F000
4000
4000
4000
4000
4000
4000
4000
4000
4200
4200
4200
FE00
0000
0000
0000
ENDCHAR

STARTCHAR 0x4d
ENCODING 77
SWIDTH 750 0
DWIDTH 9 0
BBX 9 18 0 -2
BITMAP
0000
0000
8200
C600
AA00
AA00
AA00
9200
9200
9200
8200
8200
8200
8200
C600
0000
0000
0000
ENDCHAR

STARTCHAR 0x4e
ENCODING 78
SWIDTH 750 0
DWIDTH 9 0
BBX 9 18 0 -2
BITMAP
0000
0000
8700
C200
A200
A200
A200
9200
9200
9200
8A00
8A00
8A00
8600
C200
0000
0000
0000
ENDCHAR

STARTCHAR 0x4f
ENCODING 79
SWIDTH 750 0
DWIDTH 9 0
BBX 9 18 0 -2
BITMAP
0000
0000
3800
4400
8200
8200
8200
8200
8200
8200
8200
8200
8200
4400
3800
0000
0000
0000
ENDCHAR

STARTCHAR 0x50
ENCODING 80
SWIDTH 750 0
DWIDTH 9 0
BBX 9 18 0 -2
BITMAP
0000
0000
F800
4400
4200
4200
4200
4200
4400
7800
4000
4000
4000
4000
F000
0000
0000
0000
ENDCHAR

STARTCHAR 0x51
ENCODING 81
SWIDTH 750 0
DWIDTH 9 0
BBX 9 18 0 -2
BITMAP
0000
0000
3800
4400
4400
8200
8200
8200
8200
8200
8200
BA00
4400
4400
3800
0800
0600
0000
ENDCHAR

STARTCHAR 0x52
ENCODING 82
SWIDTH 750 0
DWIDTH 9 0
BBX 9 18 0 -2
BITMAP
0000
0000
F800
4400
4200
4200
4200
4400
7800
4800
4400
4400
4400
4200
E300
0000
0000
0000
ENDCHAR

STARTCHAR 0x53
ENCODING 83
SWIDTH 750 0
DWIDTH 9 0
BBX 9 18 0 -2
BITMAP
0000
0000
3400
4C00
8400
8000
8000
6000
1800
0400
8200
8200
8200
C400
B800
0000
0000
0000
ENDCHAR

STARTCHAR 0x54
ENCODING 84
SWIDTH 750 0
DWIDTH 9 0
BBX 9 18 0 -2
BITMAP
0000
0000
FE00
9200
9200
1000
1000
1000
1000
1000
1000
1000
1000
1000
7C00
0000
0000
0000
ENDCHAR

STARTCHAR 0x55
ENCODING 85
SWIDTH 750 0
DWIDTH 9 0
BBX 9 18 0 -2
BITMAP
0000
0000
E700
4200
4200
4200
4200
4200
4200
4200
4200
4200
4200
4200
3C00
0000
0000
0000
ENDCHAR

STARTCHAR 0x56
ENCODING 86
SWIDTH 750 0
DWIDTH 9 0
BBX 9 18 0 -2
BITMAP
0000
0000
C600
8200
8200
8200
8200
4400
4400
4400
4400
2800
2800
1000
1000
0000
0000
0000
ENDCHAR

STARTCHAR 0x57
ENCODING 87
SWIDTH 750 0
DWIDTH 9 0
BBX 9 18 0 -2
BITMAP
0000
0000
C600
8200
8200
8200
9200
9200
9200
AA00
AA00
AA00
4400
4400
4400
0000
0000
0000
ENDCHAR

STARTCHAR 0x58
ENCODING 88
SWIDTH 750 0
DWIDTH 9 0
BBX 9 18 0 -2
BITMAP
0000
0000
EE00
4400
4400
2800
2800
1000
2800
2800
2800
4400
4400
8200
C600
0000
0000
0000
ENDCHAR

STARTCHAR 0x59
ENCODING 89
SWIDTH 750 0
DWIDTH 9 0
BBX 9 18 0 -2
BITMAP
0000
0000
C600
8200
4400
4400
4400
2800
2800
1000
1000
1000
1000
1000
7C00
0000
0000
0000
ENDCHAR

STARTCHAR 0x5a
ENCODING 90
SWIDTH 750 0
DWIDTH 9 0
BBX 9 18 0 -2
BITMAP
0000
0000
FE00
8400
8800
0800
1000
1000
1000
2000
2000
4200
4200
8200
FE00
0000
0000
0000
ENDCHAR

STARTCHAR 0x5b
ENCODING 91
SWIDTH 750 0
DWIDTH 9 0
BBX 9 18 0 -2
BITMAP
0000
1E00
1000
1000
1000
1000
1000
1000
1000
1000
1000
1000
1000
1000
1000
1000
1E00
0000
ENDCHAR

STARTCHAR 0x5c
ENCODING 92
SWIDTH 750 0
DWIDTH 9 0
BBX 9 18 0 -2
BITMAP
0000
0000
8000
8000
4000
4000
2000
2000
1000
1000
0800
0800
0400
0400
0200
0200
0000
0000
ENDCHAR

STARTCHAR 0x5d
ENCODING 93
SWIDTH 750 0
DWIDTH 9 0
BBX 9 18 0 -2
BITMAP
0000
F000
1000
1000
1000
1000
1000
1000
1000
1000
1000
1000
1000
1000
1000
1000
F000
0000
ENDCHAR

STARTCHAR 0x5e
ENCODING 94
SWIDTH 750 0
DWIDTH 9 0
BBX 9 18 0 -2
BITMAP
0000
1000
2800
4400
8200
0000
0000
0000
0000
0000
0000
0000
0000
0000
0000
0000
0000
0000
ENDCHAR

STARTCHAR 0x5f
ENCODING 95
SWIDTH 750 0
DWIDTH 9 0
BBX 9 18 0 -2
BITMAP
0000
0000
0000
0000
0000
0000
0000
0000
0000
0000
0000
0000
0000
0000
0000
0000
FE00
0000
ENDCHAR

STARTCHAR 0x60
ENCODING 96
SWIDTH 750 0
DWIDTH 9 0
BBX 9 18 0 -2
BITMAP
0000
3000
3000
2000
2000
1000
0000
0000
0000
0000
0000
0000
0000
0000
0000
0000
0000
0000
ENDCHAR

STARTCHAR 0x61
ENCODING 97
SWIDTH 750 0
DWIDTH 9 0
BBX 9 18 0 -2
BITMAP
0000
0000
0000
0000
0000
0000
3C00
4200
0200
3E00
4200
8200
8200
8600
7B00
0000
0000
0000
ENDCHAR

STARTCHAR 0x62
ENCODING 98
SWIDTH 750 0
DWIDTH 9 0
BBX 9 18 0 -2
BITMAP
0000
0000
C000
4000
4000
4000
7800
4400
4200
4200
4200
4200
4200
4400
7800
0000
0000
0000
ENDCHAR

STARTCHAR 0x63
ENCODING 99
SWIDTH 750 0
DWIDTH 9 0
BBX 9 18 0 -2
BITMAP
0000
0000
0000
0000
0000
0000
3A00
4600
8200
8000
8000
8000
8200
4200
3C00
0000
0000
0000
ENDCHAR

STARTCHAR 0x64
ENCODING 100
SWIDTH 750 0
DWIDTH 9 0
BBX 9 18 0 -2
BITMAP
0000
0000
0600
0400
0400
0400
3C00
4400
8400
8400
8400
8400
8400
4400
3E00
0000
0000
0000
ENDCHAR

STARTCHAR 0x65
ENCODING 101
SWIDTH 750 0
DWIDTH 9 0
BBX 9 18 0 -2
BITMAP
0000
0000
0000
0000
0000
0000
3800
4400
8200
FE00
8000
8000
8200
4200
3C00
0000
0000
0000
ENDCHAR

STARTCHAR 0x66
ENCODING 102
SWIDTH 750 0
DWIDTH 9 0
BBX 9 18 0 -2
BITMAP
0000
0000
0E00
1100
1000
1000
FE00
1000
1000
1000
1000
1000
1000
1000
7C00
0000
0000
0000
ENDCHAR

STARTCHAR 0x67
ENCODING 103
SWIDTH 750 0
DWIDTH 9 0
BBX 9 18 0 -2
BITMAP
0000
0000
0000
0000
0000
0000
3B00
4400
4400
4400
3800
4000
7800
8400
8200
8200
7C00
0000
ENDCHAR

STARTCHAR 0x68
ENCODING 104
SWIDTH 750 0
DWIDTH 9 0
BBX 9 18 0 -2
BITMAP
0000
0000
C000
4000
4000
4000
5C00
6200
4200
4200
4200
4200
4200
4200
E700
0000
0000
0000
ENDCHAR

STARTCHAR 0x69
ENCODING 105
SWIDTH 750 0
DWIDTH 9 0
BBX 9 18 0 -2
BITMAP
0000
1800
1800
0000
0000
0000
7800
0800
0800
0800
0800
0800
0800
0800
FF00
0000
0000
0000
ENDCHAR

STARTCHAR 0x6a
ENCODING 106
SWIDTH 750 0
DWIDTH 9 0
BBX 9 18 0 -2
BITMAP
0000
0600
0600
0000
0000
0000
3E00
0200
0200
0200
0200
0200
0200
8200
8200
4400
3800
0000
ENDCHAR

STARTCHAR 0x6b
ENCODING 107
SWIDTH 750 0
DWIDTH 9 0
BBX 9 18 0 -2
BITMAP
0000
0000
C000
4000
4000
4000
4200
4400
4800
5800
6400
4400
4200
4200
E300
0000
0000
0000
ENDCHAR

STARTCHAR 0x6c
ENCODING 108
SWIDTH 750 0
DWIDTH 9 0
BBX 9 18 0 -2
BITMAP
0000
0000
7800
0800
0800
0800
0800
0800
0800
0800
0800
0800
0800
0800
FF00
0000
0000
0000
ENDCHAR

STARTCHAR 0x6d
ENCODING 109
SWIDTH 750 0
DWIDTH 9 0
BBX 9 18 0 -2
BITMAP
0000
0000
0000
0000
0000
0000
6C00
9200
9200
9200
9200
9200
9200
9200
DB00
0000
0000
0000
ENDCHAR

STARTCHAR 0x6e
ENCODING 110
SWIDTH 750 0
DWIDTH 9 0
BBX 9 18 0 -2
BITMAP
0000
0000
0000
0000
0000
0000
DC00
6200
4200
4200
4200
4200
4200
4200
E700
0000
0000
0000
ENDCHAR

STARTCHAR 0x6f
ENCODING 111
SWIDTH 750 0
DWIDTH 9 0
BBX 9 18 0 -2
BITMAP
0000
0000
0000
0000
0000
0000
3800
4400
8200
8200
8200
8200
8200
4400
3800
0000
0000
0000
ENDCHAR

STARTCHAR 0x70
ENCODING 112
SWIDTH 750 0
DWIDTH 9 0
BBX 9 18 0 -2
BITMAP
0000
0000
0000
0000
0000
0000
F800
4400
4200
4200
4200
4200
4400
7800
4000
4000
F000
0000
ENDCHAR

STARTCHAR 0x71
ENCODING 113
SWIDTH 750 0
DWIDTH 9 0
BBX 9 18 0 -2
BITMAP
0000
0000
0000
0000
0000
0000
3E00
4400
8400
8400
8400
8400
4400
3C00
0400
0400
1E00
0000
ENDCHAR

STARTCHAR 0x72
ENCODING 114
SWIDTH 750 0
DWIDTH 9 0
BBX 9 18 0 -2
BITMAP
0000
0000
0000
0000
0000
0000
EC00
3200
2200
2000
2000
2000
2000
2000
FC00
0000
0000
0000
ENDCHAR

STARTCHAR 0x73
ENCODING 115
SWIDTH 750 0
DWIDTH 9 0
BBX 9 18 0 -2
BITMAP
0000
0000
0000
0000
0000
0000
3A00
4600
4200
4000
3C00
0200
8200
C200
BC00
0000
0000
0000
ENDCHAR

STARTCHAR 0x74
ENCODING 116
SWIDTH 750 0
DWIDTH 9 0
BBX 9 18 0 -2
BITMAP
0000
0000
0000
2000
2000
2000
FC00
2000
2000
2000
2000
2000
2200
2200
1C00
0000
0000
0000
ENDCHAR

STARTCHAR 0x75
ENCODING 117
SWIDTH 750 0
DWIDTH 9 0
BBX 9 18 0 -2
BITMAP
0000
0000
0000
0000
0000
0000
C600
4200
4200
4200
4200
4200
4200
4600
3900
0000
0000
0000
ENDCHAR

STARTCHAR 0x76
ENCODING 118
SWIDTH 750 0
DWIDTH 9 0
BBX 9 18 0 -2
BITMAP
0000
0000
0000
0000
0000
0000
C600
8200
8200
4400
4400
4400
2800
2800
1000
0000
0000
0000
ENDCHAR

STARTCHAR 0x77
ENCODING 119
SWIDTH 750 0
DWIDTH 9 0
BBX 9 18 0 -2
BITMAP
0000
0000
0000
0000
0000
0000
9200
9200
9200
9200
AA00
AA00
4400
4400
4400
0000
0000
0000
ENDCHAR

STARTCHAR 0x78
ENCODING 120
SWIDTH 750 0
DWIDTH 9 0
BBX 9 18 0 -2
BITMAP
0000
0000
0000
0000
0000
0000
EE00
4400
2800
2800
1000
2800
2800
4400
EE00
0000
0000
0000
ENDCHAR

STARTCHAR 0x79
ENCODING 121
SWIDTH 750 0
DWIDTH 9 0
BBX 9 18 0 -2
BITMAP
0000
0000
0000
0000
0000
0000
E700
4200
2200
2400
1400
0800
0800
1000
9000
A000
4000
0000
ENDCHAR

STARTCHAR 0x7a
ENCODING 122
SWIDTH 750 0
DWIDTH 9 0
BBX 9 18 0 -2
BITMAP
0000
0000
0000
0000
0000
0000
7E00
4400
0800
0800
1000
1000
2200
4200
FE00
0000
0000
0000
ENDCHAR

STARTCHAR 0x7b
ENCODING 123
SWIDTH 750 0
DWIDTH 9 0
BBX 9 18 0 -2
BITMAP
0000
0600
0800
0800
0800
0800
0800
1000
2000
1000
0800
0800
0800
0800
0800
0800
0600
0000
ENDCHAR

STARTCHAR 0x7c
ENCODING 124
SWIDTH 750 0
DWIDTH 9 0
BBX 9 18 0 -2
BITMAP
0000
1000
1000
1000
1000
1000
1000
1000
1000
1000
1000
1000
1000
1000
1000
1000
1000
0000
ENDCHAR

STARTCHAR 0x7d
ENCODING 125
SWIDTH 750 0
DWIDTH 9 0
BBX 9 18 0 -2
BITMAP
0000
C000
2000
2000
2000
2000
2000
1000
0800
1000
2000
2000
2000
2000
2000
2000
C000
0000
ENDCHAR

STARTCHAR 0x7e
ENCODING 126
SWIDTH 750 0
DWIDTH 9 0
BBX 9 18 0 -2
BITMAP
0000
6000
9200
0C00
0000
0000
0000
0000
0000
0000
0000
0000
0000
0000
0000
0000
0000
0000
ENDCHAR

STARTCHAR 0xa1
ENCODING 161
SWIDTH 750 0
DWIDTH 9 0
BBX 9 18 0 -2
BITMAP
0000
0000
1000
3800
1000
0000
0000
1000
1000
1000
1000
3800
3800
3800
3800
3800
3800
0000
ENDCHAR

STARTCHAR 0xa2
ENCODING 162
SWIDTH 750 0
DWIDTH 9 0
BBX 9 18 0 -2
BITMAP
0000
0000
0000
1000
3C00
5200
9200
9000
9000
9000
9000
9000
9200
5200
3C00
1000
0000
0000
ENDCHAR

STARTCHAR 0xa3
ENCODING 163
SWIDTH 750 0
DWIDTH 9 0
BBX 9 18 0 -2
BITMAP
0000
0000
0000
0000
0000
0C00
1200
1000
1000
1000
7C00
1000
1000
3C00
5200
2000
0000
0000
ENDCHAR

STARTCHAR 0xa4
ENCODING 164
SWIDTH 750 0
DWIDTH 9 0
BBX 9 18 0 -2
BITMAP
0000
0000
0000
0000
0000
0000
4200
3C00
2400
2400
3C00
4200
0000
0000
0000
0000
0000
0000
ENDCHAR

STARTCHAR 0xa5
ENCODING 165
SWIDTH 750 0
DWIDTH 9 0
BBX 9 18 0 -2
BITMAP
0000
8200
8200
4400
4400
FE00
2800
1000
FE00
1000
1000
1000
1000
1000
3800
0000
0000
0000
ENDCHAR

STARTCHAR 0xa6
ENCODING 166
SWIDTH 750 0
DWIDTH 9 0
BBX 9 18 0 -2
BITMAP
0000
0000
1000
1000
1000
1000
1000
0000
0000
0000
1000
1000
1000
1000
1000
0000
0000
0000
ENDCHAR

STARTCHAR 0xa7
ENCODING 167
SWIDTH 750 0
DWIDTH 9 0
BBX 9 18 0 -2
BITMAP
0000
0000
3C00
4200
4000
2000
3C00
4200
4200
4200
3C00
0400
0200
4200
3C00
0000
0000
0000
ENDCHAR

STARTCHAR 0xa8
ENCODING 168
SWIDTH 750 0
DWIDTH 9 0
BBX 9 18 0 -2
BITMAP
0000
0000
2400
2400
2400
0000
0000
0000
0000
0000
0000
0000
0000
0000
0000
0000
0000
0000
ENDCHAR

STARTCHAR 0xa9
ENCODING 169
SWIDTH 750 0
DWIDTH 9 0
BBX 9 18 0 -2
BITMAP
0000
0000
3C00
4200
9900
A500
C300
C100
C100
C100
C300
A500
9900
4200
3C00
0000
0000
0000
ENDCHAR

STARTCHAR 0xaa
ENCODING 170
SWIDTH 750 0
DWIDTH 9 0
BBX 9 18 0 -2
BITMAP
0000
0000
1C00
2200
1E00
2200
2600
1A00
0000
3E00
0000
0000
0000
0000
0000
0000
0000
0000
ENDCHAR

STARTCHAR 0xab
ENCODING 171
SWIDTH 750 0
DWIDTH 9 0
BBX 9 18 0 -2
BITMAP
0000
0000
0000
0000
0900
1200
2400
4800
9000
9000
4800
2400
1200
0900
0000
0000
0000
0000
ENDCHAR

STARTCHAR 0xac
ENCODING 172
SWIDTH 750 0
DWIDTH 9 0
BBX 9 18 0 -2
BITMAP
0000
0000
0000
0000
0000
0000
0000
0000
FE00
FE00
0600
0600
0000
0000
0000
0000
0000
0000
ENDCHAR

STARTCHAR 0xad
ENCODING 173
SWIDTH 750 0
DWIDTH 9 0
BBX 9 18 0 -2
BITMAP
0000
0000
0000
0000
0000
0000
0000
0000
FE00
FE00
0000
0000
0000
0000
0000
0000
0000
0000
ENDCHAR

STARTCHAR 0xae
ENCODING 174
SWIDTH 750 0
DWIDTH 9 0
BBX 9 18 0 -2
BITMAP
0000
0000
3C00
4200
8100
F900
C500
C500
F900
C500
C500
C500
8100
4200
3C00
0000
0000
0000
ENDCHAR

STARTCHAR 0xaf
ENCODING 175
SWIDTH 750 0
DWIDTH 9 0
BBX 9 18 0 -2
BITMAP
0000
0000
0000
FE00
0000
0000
0000
0000
0000
0000
0000
0000
0000
0000
0000
0000
0000
0000
ENDCHAR

STARTCHAR 0xb0
ENCODING 176
SWIDTH 750 0
DWIDTH 9 0
BBX 9 18 0 -2
BITMAP
0000
0000
3800
4400
4400
4400
3800
0000
0000
0000
0000
0000
0000
0000
0000
0000
0000
0000
ENDCHAR

STARTCHAR 0xb1
ENCODING 177
SWIDTH 750 0
DWIDTH 9 0
BBX 9 18 0 -2
BITMAP
0000
0000
0000
0000
0000
1000
1000
1000
FE00
1000
1000
1000
0000
FE00
0000
0000
0000
0000
ENDCHAR

STARTCHAR 0xb2
ENCODING 178
SWIDTH 750 0
DWIDTH 9 0
BBX 9 18 0 -2
BITMAP
0000
0000
1800
2400
0400
0800
1000
2000
3C00
0000
0000
0000
0000
0000
0000
0000
0000
0000
ENDCHAR

STARTCHAR 0xb3
ENCODING 179
SWIDTH 750 0
DWIDTH 9 0
BBX 9 18 0 -2
BITMAP
0000
0000
1800
2400
0400
1800
0400
2400
1800
0000
0000
0000
0000
0000
0000
0000
0000
0000
ENDCHAR

STARTCHAR 0xb4
ENCODING 180
SWIDTH 750 0
DWIDTH 9 0
BBX 9 18 0 -2
BITMAP
0000
0000
0C00
1800
3000
0000
0000
0000
0000
0000
0000
0000
0000
0000
0000
0000
0000
0000
ENDCHAR

STARTCHAR 0xb5
ENCODING 181
SWIDTH 750 0
DWIDTH 9 0
BBX 9 18 0 -2
BITMAP
0000
0000
0000
0000
0000
0000
0000
0000
2200
2200
2200
4400
4400
6C00
5400
8200
8000
0000
ENDCHAR

STARTCHAR 0xb6
ENCODING 182
SWIDTH 750 0
DWIDTH 9 0
BBX 9 18 0 -2
BITMAP
0000
0000
7F00
FA00
FA00
FA00
FA00
FA00
7A00
0A00
0A00
0A00
0A00
0A00
1B00
0000
0000
0000
ENDCHAR

STARTCHAR 0xb7
ENCODING 183
SWIDTH 750 0
DWIDTH 9 0
BBX 9 18 0 -2
BITMAP
0000
0000
0000
0000
0000
0000
0000
1800
1800
0000
0000
0000
0000
0000
0000
0000
0000
0000
ENDCHAR

STARTCHAR 0xb8
ENCODING 184
SWIDTH 750 0
DWIDTH 9 0
BBX 9 18 0 -2
BITMAP
0000
0000
0000
0000
0000
0000
0000
0000
0000
0000
0000
0000
0000
0000
0C00
0800
1000
0000
ENDCHAR

STARTCHAR 0xb9
ENCODING 185
SWIDTH 750 0
DWIDTH 9 0
BBX 9 18 0 -2
BITMAP
0000
0000
0800
1800
2800
0800
0800
0800
0800
0000
0000
0000
0000
0000
0000
0000
0000
0000
ENDCHAR

STARTCHAR 0xba
ENCODING 186
SWIDTH 750 0
DWIDTH 9 0
BBX 9 18 0 -2
BITMAP
0000
0000
1800
2400
2400
2400
2400
1800
0000
3C00
0000
0000
0000
0000
0000
0000
0000
0000
ENDCHAR

STARTCHAR 0xbb
ENCODING 187
SWIDTH 750 0
DWIDTH 9 0
BBX 9 18 0 -2
BITMAP
0000
0000
0000
0000
0000
9000
4800
2400
1200
0900
0900
1200
2400
4800
9000
0000
0000
0000
ENDCHAR

STARTCHAR 0xbc
ENCODING 188
SWIDTH 750 0
DWIDTH 9 0
BBX 9 18 0 -2
BITMAP
0000
0000
4000
C000
4000
4000
4100
4600
0800
3200
C600
0A00
1200
1F00
0200
0000
0000
0000
ENDCHAR

STARTCHAR 0xbd
ENCODING 189
SWIDTH 750 0
DWIDTH 9 0
BBX 9 18 0 -2
BITMAP
0000
0000
4000
C000
4000
4000
4100
4600
0800
3600
C900
0100
0600
0800
0F00
0000
0000
0000
ENDCHAR

STARTCHAR 0xbe
ENCODING 190
SWIDTH 750 0
DWIDTH 9 0
BBX 9 18 0 -2
BITMAP
0000
0000
6000
9000
1000
6000
1100
9600
6800
3200
C600
0A00
1200
1F00
0200
0000
0000
0000
ENDCHAR

STARTCHAR 0xbf
ENCODING 191
SWIDTH 750 0
DWIDTH 9 0
BBX 9 18 0 -2
BITMAP
0000
0800
1C00
0800
0000
0800
0800
0800
1000
2000
2000
4000
4300
4100
2200
1C00
0000
0000
ENDCHAR

STARTCHAR 0xc0
ENCODING 192
SWIDTH 750 0
DWIDTH 9 0
BBX 9 18 0 -2
BITMAP
0000
3000
1000
0800
1000
2800
2800
4400
4400
4400
7C00
8200
8200
8200
C600
0000
0000
0000
ENDCHAR

STARTCHAR 0xc1
ENCODING 193
SWIDTH 750 0
DWIDTH 9 0
BBX 9 18 0 -2
BITMAP
0000
1800
1000
2000
1000
2800
2800
4400
4400
4400
7C00
8200
8200
8200
C600
0000
0000
0000
ENDCHAR

STARTCHAR 0xc2
ENCODING 194
SWIDTH 750 0
DWIDTH 9 0
BBX 9 18 0 -2
BITMAP
0000
1000
2800
4400
1000
2800
2800
4400
4400
4400
7C00
8200
8200
8200
C600
0000
0000
0000
ENDCHAR

STARTCHAR 0xc3
ENCODING 195
SWIDTH 750 0
DWIDTH 9 0
BBX 9 18 0 -2
BITMAP
0000
2400
5800
0000
1000
2800
2800
4400
4400
4400
7C00
8200
8200
8200
C600
0000
0000
0000
ENDCHAR

STARTCHAR 0xc4
ENCODING 196
SWIDTH 750 0
DWIDTH 9 0
BBX 9 18 0 -2
BITMAP
0000
4400
4400
0000
1000
2800
2800
4400
4400
4400
7C00
8200
8200
8200
C600
0000
0000
0000
ENDCHAR

STARTCHAR 0xc5
ENCODING 197
SWIDTH 750 0
DWIDTH 9 0
BBX 9 18 0 -2
BITMAP
0000
3800
4400
3800
1000
2800
2800
4400
4400
4400
7C00
8200
8200
8200
C600
0000
0000
0000
ENDCHAR

STARTCHAR 0xc6
ENCODING 198
SWIDTH 750 0
DWIDTH 9 0
BBX 9 18 0 -2
BITMAP
0000
0000
0000
1F00
2800
2800
4800
4800
4800
4E00
F800
8800
8800
8800
8F00
0000
0000
0000
ENDCHAR

STARTCHAR 0xc7
ENCODING 199
SWIDTH 750 0
DWIDTH 9 0
BBX 9 18 0 -2
BITMAP
0000
0000
3C00
4200
4000
8000
8000
8000
8000
8000
8000
4000
4200
3C00
0800
0800
1000
0000
ENDCHAR

STARTCHAR 0xc8
ENCODING 200
SWIDTH 750 0
DWIDTH 9 0
BBX 9 18 0 -2
BITMAP
0000
3000
1000
0800
FE00
4200
4200
4000
4800
7800
4800
4000
4200
4200
FE00
0000
0000
0000
ENDCHAR

STARTCHAR 0xc9
ENCODING 201
SWIDTH 750 0
DWIDTH 9 0
BBX 9 18 0 -2
BITMAP
0000
1800
1000
2000
FE00
4200
4200
4000
4800
7800
4800
4000
4200
4200
FE00
0000
0000
0000
ENDCHAR

STARTCHAR 0xca
ENCODING 202
SWIDTH 750 0
DWIDTH 9 0
BBX 9 18 0 -2
BITMAP
0000
3000
4800
0000
FE00
4200
4200
4000
4800
7800
4800
4000
4200
4200
FE00
0000
0000
0000
ENDCHAR

STARTCHAR 0xcb
ENCODING 203
SWIDTH 750 0
DWIDTH 9 0
BBX 9 18 0 -2
BITMAP
0000
4400
4400
0000
FE00
4200
4200
4000
4800
7800
4800
4000
4200
4200
FE00
0000
0000
0000
ENDCHAR

STARTCHAR 0xcc
ENCODING 204
SWIDTH 750 0
DWIDTH 9 0
BBX 9 18 0 -2
BITMAP
0000
3000
1000
0800
FE00
1000
1000
1000
1000
1000
1000
1000
1000
1000
FE00
0000
0000
0000
ENDCHAR

STARTCHAR 0xcd
ENCODING 205
SWIDTH 750 0
DWIDTH 9 0
BBX 9 18 0 -2
BITMAP
0000
1800
1000
2000
FE00
1000
1000
1000
1000
1000
1000
1000
1000
1000
FE00
0000
0000
0000
ENDCHAR

STARTCHAR 0xce
ENCODING 206
SWIDTH 750 0
DWIDTH 9 0
BBX 9 18 0 -2
BITMAP
0000
1000
2800
4400
FE00
1000
1000
1000
1000
1000
1000
1000
1000
1000
FE00
0000
0000
0000
ENDCHAR

STARTCHAR 0xcf
ENCODING 207
SWIDTH 750 0
DWIDTH 9 0
BBX 9 18 0 -2
BITMAP
0000
4400
4400
0000
FE00
1000
1000
1000
1000
1000
1000
1000
1000
1000
FE00
0000
0000
0000
ENDCHAR

STARTCHAR 0xd0
ENCODING 208
SWIDTH 750 0
DWIDTH 9 0
BBX 9 18 0 -2
BITMAP
0000
0000
F800
4400
4400
4200
4200
4200
F200
4200
4200
4200
4400
4400
F800
0000
0000
0000
ENDCHAR

STARTCHAR 0xd1
ENCODING 209
SWIDTH 750 0
DWIDTH 9 0
BBX 9 18 0 -2
BITMAP
0000
2400
5800
0000
8700
C200
A200
A200
9200
9200
9200
8A00
8A00
8600
C200
0000
0000
0000
ENDCHAR

STARTCHAR 0xd2
ENCODING 210
SWIDTH 750 0
DWIDTH 9 0
BBX 9 18 0 -2
BITMAP
0000
3000
1000
0800
3800
4400
8200
8200
8200
8200
8200
8200
8200
4400
3800
0000
0000
0000
ENDCHAR

STARTCHAR 0xd3
ENCODING 211
SWIDTH 750 0
DWIDTH 9 0
BBX 9 18 0 -2
BITMAP
0000
1800
1000
2000
3800
4400
8200
8200
8200
8200
8200
8200
8200
4400
3800
0000
0000
0000
ENDCHAR

STARTCHAR 0xd4
ENCODING 212
SWIDTH 750 0
DWIDTH 9 0
BBX 9 18 0 -2
BITMAP
0000
3800
4400
0000
3800
4400
8200
8200
8200
8200
8200
8200
8200
4400
3800
0000
0000
0000
ENDCHAR

STARTCHAR 0xd5
ENCODING 213
SWIDTH 750 0
DWIDTH 9 0
BBX 9 18 0 -2
BITMAP
0000
2400
5800
0000
3800
4400
8200
8200
8200
8200
8200
8200
8200
4400
3800
0000
0000
0000
ENDCHAR

STARTCHAR 0xd6
ENCODING 214
SWIDTH 750 0
DWIDTH 9 0
BBX 9 18 0 -2
BITMAP
0000
4400
4400
0000
3800
4400
8200
8200
8200
8200
8200
8200
8200
4400
3800
0000
0000
0000
ENDCHAR

STARTCHAR 0xd7
ENCODING 215
SWIDTH 750 0
DWIDTH 9 0
BBX 9 18 0 -2
BITMAP
0000
0000
0000
0000
0000
8100
4200
2400
1800
1800
2400
4200
8100
0000
0000
0000
0000
0000
ENDCHAR

STARTCHAR 0xd8
ENCODING 216
SWIDTH 750 0
DWIDTH 9 0
BBX 9 18 0 -2
BITMAP
0000
0200
0200
3C00
4400
8600
8A00
8A00
9200
9200
A200
A200
C200
4400
7800
8000
8000
0000
ENDCHAR

STARTCHAR 0xd9
ENCODING 217
SWIDTH 750 0
DWIDTH 9 0
BBX 9 18 0 -2
BITMAP
0000
3000
1000
0800
E700
4200
4200
4200
4200
4200
4200
4200
4200
4200
3C00
0000
0000
0000
ENDCHAR

STARTCHAR 0xda
ENCODING 218
SWIDTH 750 0
DWIDTH 9 0
BBX 9 18 0 -2
BITMAP
0000
0C00
0800
1000
E700
4200
4200
4200
4200
4200
4200
4200
4200
4200
3C00
0000
0000
0000
ENDCHAR

STARTCHAR 0xdb
ENCODING 219
SWIDTH 750 0
DWIDTH 9 0
BBX 9 18 0 -2
BITMAP
0000
1800
2400
0000
E700
4200
4200
4200
4200
4200
4200
4200
4200
4200
3C00
0000
0000
0000
ENDCHAR

STARTCHAR 0xdc
ENCODING 220
SWIDTH 750 0
DWIDTH 9 0
BBX 9 18 0 -2
BITMAP
0000
2400
2400
0000
E700
4200
4200
4200
4200
4200
4200
4200
4200
4200
3C00
0000
0000
0000
ENDCHAR

STARTCHAR 0xdd
ENCODING 221
SWIDTH 750 0
DWIDTH 9 0
BBX 9 18 0 -2
BITMAP
0000
0C00
0800
1000
C600
8200
4400
4400
2800
2800
1000
1000
1000
1000
7C00
0000
0000
0000
ENDCHAR

STARTCHAR 0xde
ENCODING 222
SWIDTH 750 0
DWIDTH 9 0
BBX 9 18 0 -2
BITMAP
0000
E000
4000
7800
4400
4200
4200
4200
4400
7800
4000
4000
4000
4000
F000
0000
0000
0000
ENDCHAR

STARTCHAR 0xdf
ENCODING 223
SWIDTH 750 0
DWIDTH 9 0
BBX 9 18 0 -2
BITMAP
0000
0000
3800
4400
8200
8200
8200
8400
9800
8400
8200
8200
8200
8200
9C00
0000
0000
0000
ENDCHAR

STARTCHAR 0xe0
ENCODING 224
SWIDTH 750 0
DWIDTH 9 0
BBX 9 18 0 -2
BITMAP
0000
0000
3000
1000
0800
0000
3C00
4200
0200
3E00
4200
8200
8200
8600
7B00
0000
0000
0000
ENDCHAR

STARTCHAR 0xe1
ENCODING 225
SWIDTH 750 0
DWIDTH 9 0
BBX 9 18 0 -2
BITMAP
0000
0000
1800
1000
2000
0000
3C00
4200
0200
3E00
4200
8200
8200
8600
7B00
0000
0000
0000
ENDCHAR

STARTCHAR 0xe2
ENCODING 226
SWIDTH 750 0
DWIDTH 9 0
BBX 9 18 0 -2
BITMAP
0000
0000
1800
2400
4200
0000
3C00
4200
0200
3E00
4200
8200
8200
8600
7B00
0000
0000
0000
ENDCHAR

STARTCHAR 0xe3
ENCODING 227
SWIDTH 750 0
DWIDTH 9 0
BBX 9 18 0 -2
BITMAP
0000
0000
3200
4C00
0000
0000
3C00
4200
0200
3E00
4200
8200
8200
8600
7B00
0000
0000
0000
ENDCHAR

STARTCHAR 0xe4
ENCODING 228
SWIDTH 750 0
DWIDTH 9 0
BBX 9 18 0 -2
BITMAP
0000
0000
0000
2400
2400
0000
3C00
4200
0200
3E00
4200
8200
8200
8600
7B00
0000
0000
0000
ENDCHAR

STARTCHAR 0xe5
ENCODING 229
SWIDTH 750 0
DWIDTH 9 0
BBX 9 18 0 -2
BITMAP
0000
0000
1800
2400
1800
0000
3C00
4200
0200
3E00
4200
8200
8200
8600
7B00
0000
0000
0000
ENDCHAR

STARTCHAR 0xe6
ENCODING 230
SWIDTH 750 0
DWIDTH 9 0
BBX 9 18 0 -2
BITMAP
0000
0000
0000
0000
0000
0000
6C00
9200
1200
3E00
5000
9000
9200
9200
6C00
0000
0000
0000
ENDCHAR

STARTCHAR 0xe7
ENCODING 231
SWIDTH 750 0
DWIDTH 9 0
BBX 9 18 0 -2
BITMAP
0000
0000
0000
0000
0000
3A00
4600
8200
8000
8000
8000
8200
4200
3C00
1000
1000
2000
0000
ENDCHAR

STARTCHAR 0xe8
ENCODING 232
SWIDTH 750 0
DWIDTH 9 0
BBX 9 18 0 -2
BITMAP
0000
0000
3000
1000
0800
0000
3800
4400
8200
FE00
8000
8000
8200
4200
3C00
0000
0000
0000
ENDCHAR

STARTCHAR 0xe9
ENCODING 233
SWIDTH 750 0
DWIDTH 9 0
BBX 9 18 0 -2
BITMAP
0000
0000
1800
1000
2000
0000
3800
4400
8200
FE00
8000
8000
8200
4200
3C00
0000
0000
0000
ENDCHAR

STARTCHAR 0xea
ENCODING 234
SWIDTH 750 0
DWIDTH 9 0
BBX 9 18 0 -2
BITMAP
0000
0000
3800
4400
8200
0000
3800
4400
8200
FE00
8000
8000
8200
4200
3C00
0000
0000
0000
ENDCHAR

STARTCHAR 0xeb
ENCODING 235
SWIDTH 750 0
DWIDTH 9 0
BBX 9 18 0 -2
BITMAP
0000
0000
4400
4400
0000
0000
3800
4400
8200
FE00
8000
8000
8000
4400
3800
0000
0000
0000
ENDCHAR

STARTCHAR 0xec
ENCODING 236
SWIDTH 750 0
DWIDTH 9 0
BBX 9 18 0 -2
BITMAP
0000
0000
3000
1000
0800
0000
7800
0800
0800
0800
0800
0800
0800
0800
FF00
0000
0000
0000
ENDCHAR

STARTCHAR 0xed
ENCODING 237
SWIDTH 750 0
DWIDTH 9 0
BBX 9 18 0 -2
BITMAP
0000
0000
1800
1000
2000
0000
7800
0800
0800
0800
0800
0800
0800
0800
FF00
0000
0000
0000
ENDCHAR

STARTCHAR 0xee
ENCODING 238
SWIDTH 750 0
DWIDTH 9 0
BBX 9 18 0 -2
BITMAP
0000
0000
1800
2400
4200
0000
7800
0800
0800
0800
0800
0800
0800
0800
FF00
0000
0000
0000
ENDCHAR

STARTCHAR 0xef
ENCODING 239
SWIDTH 750 0
DWIDTH 9 0
BBX 9 18 0 -2
BITMAP
0000
0000
2400
2400
0000
0000
7800
0800
0800
0800
0800
0800
0800
0800
FF00
0000
0000
0000
ENDCHAR

STARTCHAR 0xf0
ENCODING 240
SWIDTH 750 0
DWIDTH 9 0
BBX 9 18 0 -2
BITMAP
0000
0000
6400
1800
1800
2400
3C00
4200
8200
8200
8200
8200
8200
4200
3C00
0000
0000
0000
ENDCHAR

STARTCHAR 0xf1
ENCODING 241
SWIDTH 750 0
DWIDTH 9 0
BBX 9 18 0 -2
BITMAP
0000
0000
3200
4C00
0000
0000
DC00
6200
4200
4200
4200
4200
4200
4200
E700
0000
0000
0000
ENDCHAR

STARTCHAR 0xf2
ENCODING 242
SWIDTH 750 0
DWIDTH 9 0
BBX 9 18 0 -2
BITMAP
0000
0000
3000
1000
0800
0000
3800
4400
8200
8200
8200
8200
8200
4400
3800
0000
0000
0000
ENDCHAR

STARTCHAR 0xf3
ENCODING 243
SWIDTH 750 0
DWIDTH 9 0
BBX 9 18 0 -2
BITMAP
0000
0000
1800
1000
2000
0000
3800
4400
8200
8200
8200
8200
8200
4400
3800
0000
0000
0000
ENDCHAR

STARTCHAR 0xf4
ENCODING 244
SWIDTH 750 0
DWIDTH 9 0
BBX 9 18 0 -2
BITMAP
0000
0000
1000
2800
4400
0000
3800
4400
8200
8200
8200
8200
8200
4400
3800
0000
0000
0000
ENDCHAR

STARTCHAR 0xf5
ENCODING 245
SWIDTH 750 0
DWIDTH 9 0
BBX 9 18 0 -2
BITMAP
0000
0000
3200
4C00
0000
0000
3800
4400
8200
8200
8200
8200
8200
4400
3800
0000
0000
0000
ENDCHAR

STARTCHAR 0xf6
ENCODING 246
SWIDTH 750 0
DWIDTH 9 0
BBX 9 18 0 -2
BITMAP
0000
0000
4400
4400
0000
0000
3800
4400
8200
8200
8200
8200
8200
4400
3800
0000
0000
0000
ENDCHAR

STARTCHAR 0xf7
ENCODING 247
SWIDTH 750 0
DWIDTH 9 0
BBX 9 18 0 -2
BITMAP
0000
0000
0000
0000
0000
0000
1000
1000
0000
FE00
0000
1000
1000
0000
0000
0000
0000
0000
ENDCHAR

STARTCHAR 0xf8
ENCODING 248
SWIDTH 750 0
DWIDTH 9 0
BBX 9 18 0 -2
BITMAP
0000
0000
0000
0000
0000
0000
3A00
4400
8A00
8A00
9200
A200
A200
4400
B800
0000
0000
0000
ENDCHAR

STARTCHAR 0xf9
ENCODING 249
SWIDTH 750 0
DWIDTH 9 0
BBX 9 18 0 -2
BITMAP
0000
0000
3000
1000
0800
0000
C600
4200
4200
4200
4200
4200
4200
4600
3900
0000
0000
0000
ENDCHAR

STARTCHAR 0xfa
ENCODING 250
SWIDTH 750 0
DWIDTH 9 0
BBX 9 18 0 -2
BITMAP
0000
0000
1800
1000
2000
0000
C600
4200
4200
4200
4200
4200
4200
4600
3900
0000
0000
0000
ENDCHAR

STARTCHAR 0xfb
ENCODING 251
SWIDTH 750 0
DWIDTH 9 0
BBX 9 18 0 -2
BITMAP
0000
0000
1000
2800
4400
0000
C600
4200
4200
4200
4200
4200
4200
4600
3900
0000
0000
0000
ENDCHAR

STARTCHAR 0xfc
ENCODING 252
SWIDTH 750 0
DWIDTH 9 0
BBX 9 18 0 -2
BITMAP
0000
0000
2400
2400
0000
0000
C600
4200
4200
4200
4200
4200
4200
4600
3900
0000
0000
0000
ENDCHAR

STARTCHAR 0xfd
ENCODING 253
SWIDTH 750 0
DWIDTH 9 0
BBX 9 18 0 -2
BITMAP
0000
0000
0C00
0800
1000
0000
E700
4200
2200
2400
1400
0800
0800
1000
9000
A000
4000
0000
ENDCHAR

STARTCHAR 0xfe
ENCODING 254
SWIDTH 750 0
DWIDTH 9 0
BBX 9 18 0 -2
BITMAP
0000
0000
0000
C000
4000
4000
7800
4400
4200
4200
4200
4200
4400
7800
4000
4000
F000
0000
ENDCHAR

STARTCHAR 0xff
ENCODING 255
SWIDTH 750 0
DWIDTH 9 0
BBX 9 18 0 -2
BITMAP
0000
0000
2400
2400
0000
0000
E700
4200
2200
2400
1400
0800
0800
1000
9000
A000
4000
0000
ENDCHAR
ENDFONT
